<svg width="516" height="162" viewBox="0 0 516 162" fill="none" xmlns="http://www.w3.org/2000/svg">
    <g clip-path="url(#clip0_15_5)">
        <g clip-path="url(#clip1_15_5)">
            <path fill-rule="evenodd" clip-rule="evenodd" d="M62.965 19C70.8479 52.9668 80.4214 54.7227 96.7774 80.2432C101.029 86.873 104 93.9268 104 102.02C104 113.261 99.9785 122.898 91.9256 130.931C83.8426 138.964 74.2091 143 62.985 143C51.7909 143 42.1774 138.964 34.0944 130.931C26.0315 122.898 22 113.261 22 102.02C22 93.8864 25.0211 86.7822 29.3127 80.112C45.6987 54.652 55.2322 52.8558 62.965 19ZM39.5764 91.4342C41.8673 91.2223 43.888 92.9277 44.0881 95.2285C44.6083 100.799 45.8187 105.935 48.1296 110.365C50.3604 114.644 53.6816 118.327 58.4833 121.163C60.4641 122.333 61.1243 124.907 59.9639 126.895C58.8035 128.893 56.2525 129.559 54.2818 128.388C48.0295 124.695 43.6979 119.891 40.7669 114.271C37.8158 108.609 36.4053 102.313 35.8151 95.9854C35.605 93.6947 37.3056 91.6462 39.5764 91.4342Z" fill="#42A5F5"/>
        </g>
        <path d="M146.784 115.588C144.824 115.588 143.228 114.804 141.996 113.236C140.82 111.668 140.232 108.756 140.232 104.5C140.232 102.484 140.428 99.908 140.82 96.772C141.212 93.58 141.716 90.08 142.332 86.272C142.948 82.464 143.536 78.6 144.096 74.68C144.712 70.704 145.216 66.896 145.608 63.256C146 59.616 146.196 56.396 146.196 53.596C146.196 51.58 146.112 49.62 145.944 47.716C145.776 45.756 145.272 43.936 144.432 42.256C145.048 41.696 145.944 41.248 147.12 40.912C148.296 40.52 149.276 40.324 150.06 40.324C151.964 40.324 153.392 40.996 154.344 42.34C155.352 43.628 155.856 45.924 155.856 49.228C155.856 51.076 155.66 53.4 155.268 56.2C154.932 59 154.484 62.052 153.924 65.356C153.364 68.66 152.776 72.104 152.16 75.688H179.628C180.244 71.6 180.776 67.624 181.224 63.76C181.672 59.896 181.896 56.508 181.896 53.596C181.896 51.58 181.812 49.62 181.644 47.716C181.476 45.756 180.972 43.936 180.132 42.256C180.748 41.696 181.616 41.248 182.736 40.912C183.912 40.52 184.92 40.324 185.76 40.324C187.664 40.324 189.092 40.996 190.044 42.34C190.996 43.628 191.472 45.924 191.472 49.228C191.472 51.3 191.248 53.904 190.8 57.04C190.352 60.176 189.82 63.648 189.204 67.456C188.588 71.208 187.944 75.072 187.272 79.048C186.656 83.024 186.124 86.916 185.676 90.724C185.228 94.476 185.004 97.92 185.004 101.056C185.004 103.24 185.2 105.34 185.592 107.356C185.984 109.316 186.852 111.052 188.196 112.564C187.188 113.796 186.152 114.608 185.088 115C184.024 115.392 183.128 115.588 182.4 115.588C180.44 115.588 178.844 114.804 177.612 113.236C176.436 111.668 175.848 108.756 175.848 104.5C175.848 102.036 176.128 98.788 176.688 94.756C177.304 90.724 177.976 86.412 178.704 81.82H151.236C150.676 85.292 150.228 88.68 149.892 91.984C149.556 95.288 149.388 98.312 149.388 101.056C149.388 103.24 149.556 105.34 149.892 107.356C150.284 109.316 151.18 111.052 152.58 112.564C151.516 113.796 150.452 114.608 149.388 115C148.324 115.392 147.456 115.588 146.784 115.588ZM202.327 136.336C200.535 136.336 198.743 136.14 196.951 135.748C195.159 135.356 193.675 134.572 192.499 133.396C191.323 132.276 190.735 130.652 190.735 128.524C190.735 126.844 191.071 125.444 191.743 124.324C192.359 123.204 192.919 122.364 193.423 121.804C194.151 124.212 195.299 126.06 196.867 127.348C198.379 128.636 200.563 129.28 203.419 129.28C206.667 129.28 209.719 127.796 212.575 124.828C215.487 121.86 218.119 117.968 220.471 113.152C218.735 113.152 217.503 112.816 216.775 112.144C216.047 111.472 215.543 110.576 215.263 109.456C214.311 105.48 213.303 101.392 212.239 97.192C211.231 92.992 210.167 88.932 209.047 85.012C207.927 81.092 206.751 77.592 205.519 74.512C204.343 71.376 203.111 68.912 201.823 67.12C200.535 65.272 199.219 64.32 197.875 64.264C198.603 62.136 199.667 60.68 201.067 59.896C202.523 59.112 203.755 58.72 204.763 58.72C206.219 58.72 207.703 59.364 209.215 60.652C210.727 61.94 212.099 64.18 213.331 67.372C213.723 68.324 214.199 69.892 214.759 72.076C215.375 74.26 216.019 76.808 216.691 79.72C217.419 82.576 218.175 85.628 218.959 88.876C219.743 92.124 220.499 95.316 221.227 98.452C221.955 101.588 222.599 104.472 223.159 107.104C224.727 103.24 226.127 99.32 227.359 95.344C228.591 91.368 229.627 87.532 230.467 83.836C231.307 80.14 231.951 76.78 232.399 73.756C232.847 70.676 233.071 68.128 233.071 66.112C233.071 64.488 232.763 63.144 232.147 62.08C232.931 60.848 233.939 60.036 235.171 59.644C236.403 59.196 237.383 58.972 238.111 58.972C239.287 58.972 240.211 59.308 240.883 59.98C241.611 60.596 241.975 61.688 241.975 63.256C241.975 63.984 241.751 65.58 241.303 68.044C240.855 70.508 240.183 73.56 239.287 77.2C238.447 80.784 237.355 84.732 236.011 89.044C234.723 93.3 233.239 97.64 231.559 102.064C229.879 106.488 228.003 110.744 225.931 114.832C223.859 118.92 221.591 122.56 219.127 125.752C216.663 129 214.031 131.576 211.231 133.48C208.431 135.384 205.463 136.336 202.327 136.336ZM261.869 116.176C259.685 116.176 257.641 115.476 255.737 114.076C253.889 112.62 252.377 110.352 251.201 107.272C250.081 104.136 249.521 100.076 249.521 95.092C249.521 91.732 249.829 88.288 250.445 84.76C251.117 81.232 252.097 77.844 253.385 74.596C254.673 71.348 256.297 68.464 258.257 65.944C260.217 63.368 262.513 61.324 265.145 59.812C267.833 58.3 270.829 57.544 274.133 57.544C276.765 57.544 279.061 58.076 281.021 59.14C282.981 60.204 284.633 61.548 285.977 63.172C286.089 62.052 286.173 60.764 286.229 59.308C286.285 57.796 286.313 56.256 286.313 54.688C286.313 52.448 286.257 50.236 286.145 48.052C286.033 45.812 285.837 43.824 285.557 42.088C285.277 40.296 284.913 38.98 284.465 38.14C285.081 37.58 285.949 37.132 287.069 36.796C288.245 36.46 289.253 36.292 290.093 36.292C292.053 36.292 293.509 36.964 294.461 38.308C295.469 39.652 295.973 42.088 295.973 45.616C295.973 48.248 295.721 51.3 295.217 54.772C294.769 58.188 294.237 61.912 293.621 65.944C293.005 69.976 292.445 74.148 291.941 78.46C291.493 82.772 291.269 87.112 291.269 91.48C291.269 96.24 291.521 100.272 292.025 103.576C292.585 106.824 293.649 109.792 295.217 112.48C294.377 113.544 293.453 114.328 292.445 114.832C291.493 115.336 290.513 115.588 289.505 115.588C287.041 115.588 285.221 114.02 284.045 110.884C282.925 107.692 282.365 103.296 282.365 97.696C282.365 95.792 282.421 94.056 282.533 92.488C282.701 90.92 282.869 89.38 283.037 87.868C281.077 93.412 278.837 98.312 276.317 102.568C273.853 106.824 271.333 110.156 268.757 112.564C266.237 114.972 263.941 116.176 261.869 116.176ZM264.725 107.272C265.957 107.272 267.385 106.432 269.009 104.752C270.689 103.016 272.397 100.748 274.133 97.948C275.869 95.092 277.521 91.928 279.089 88.456C280.657 84.984 282.001 81.456 283.121 77.872C284.241 74.232 284.969 70.844 285.305 67.708C283.289 66.196 281.385 65.104 279.593 64.432C277.801 63.704 276.093 63.34 274.469 63.34C271.949 63.34 269.681 64.124 267.665 65.692C265.649 67.26 263.941 69.416 262.541 72.16C261.197 74.848 260.161 77.984 259.433 81.568C258.705 85.152 258.341 88.96 258.341 92.992C258.341 95.624 258.565 98.032 259.013 100.216C259.461 102.344 260.161 104.052 261.113 105.34C262.065 106.628 263.269 107.272 264.725 107.272ZM316.917 115.588C314.957 115.588 313.361 114.804 312.129 113.236C310.953 111.668 310.365 108.756 310.365 104.5C310.365 101.196 310.645 97.78 311.205 94.252C311.821 90.724 312.409 87.056 312.969 83.248C313.585 79.44 313.893 75.436 313.893 71.236C313.893 69.444 313.809 67.596 313.641 65.692C313.473 63.732 312.969 61.968 312.129 60.4C312.745 59.784 313.641 59.308 314.817 58.972C315.993 58.636 316.973 58.468 317.757 58.468C319.213 58.468 320.501 58.944 321.621 59.896C322.797 60.848 323.385 62.5 323.385 64.852C323.385 66.476 323.105 69.024 322.545 72.496C322.041 75.968 321.509 79.748 320.949 83.836C323.077 78.18 325.373 73.392 327.837 69.472C330.301 65.552 332.653 62.584 334.893 60.568C337.133 58.552 339.009 57.544 340.521 57.544C341.585 57.544 342.425 57.908 343.041 58.636C343.657 59.364 344.077 60.204 344.301 61.156C344.581 62.108 344.721 62.976 344.721 63.76C344.721 64.432 344.665 65.16 344.553 65.944C344.441 66.728 344.329 67.4 344.217 67.96C343.377 67.792 342.593 67.708 341.865 67.708C339.569 67.708 337.301 68.52 335.061 70.144C332.877 71.768 330.833 73.896 328.929 76.528C327.081 79.104 325.429 81.876 323.973 84.844C322.573 87.812 321.481 90.696 320.697 93.496C319.913 96.24 319.521 98.536 319.521 100.384C319.521 102.904 319.689 105.2 320.025 107.272C320.417 109.288 321.313 111.052 322.713 112.564C321.649 113.796 320.585 114.608 319.521 115C318.457 115.392 317.589 115.588 316.917 115.588ZM360.716 116.176C356.908 116.176 353.884 114.3 351.644 110.548C349.46 106.796 348.368 101.644 348.368 95.092C348.368 89.828 348.984 84.928 350.216 80.392C351.504 75.8 353.268 71.796 355.508 68.38C357.748 64.964 360.352 62.304 363.32 60.4C366.288 58.496 369.508 57.544 372.98 57.544C377.74 57.544 381.688 59.42 384.824 63.172C385.272 61.436 385.832 60.204 386.504 59.476C387.232 58.748 388.212 58.384 389.444 58.384C391.18 58.384 392.692 59.112 393.98 60.568C393.476 61.912 393 63.788 392.552 66.196C392.104 68.548 391.712 71.208 391.376 74.176C391.04 77.088 390.76 80.14 390.536 83.332C390.368 86.468 390.284 89.492 390.284 92.404C390.284 97.444 390.564 101.476 391.124 104.5C391.74 107.468 392.748 110.128 394.148 112.48C392.524 114.552 390.62 115.588 388.436 115.588C386.084 115.588 384.292 114.076 383.06 111.052C381.828 108.028 381.212 103.632 381.212 97.864C381.212 97.024 381.24 96.016 381.296 94.84C381.408 93.608 381.52 92.376 381.632 91.144C381.744 89.856 381.828 88.764 381.884 87.868C379.98 93.244 377.768 98.088 375.248 102.4C372.784 106.656 370.264 110.016 367.688 112.48C365.168 114.944 362.844 116.176 360.716 116.176ZM363.572 107.272C364.86 107.272 366.316 106.432 367.94 104.752C369.564 103.016 371.244 100.72 372.98 97.864C374.772 95.008 376.424 91.844 377.936 88.372C379.504 84.9 380.848 81.372 381.968 77.788C383.088 74.204 383.816 70.844 384.152 67.708C380.344 64.796 376.732 63.34 373.316 63.34C370.18 63.34 367.38 64.6 364.916 67.12C362.508 69.64 360.604 73.14 359.204 77.62C357.86 82.044 357.188 87.168 357.188 92.992C357.188 97.416 357.748 100.916 358.868 103.492C360.044 106.012 361.612 107.272 363.572 107.272ZM440.308 116.512C438.796 115.896 437.256 115.364 435.688 114.916C434.12 114.468 432.272 114.104 430.144 113.824C428.016 113.544 425.3 113.404 421.996 113.404C419.756 113.404 417.684 113.488 415.78 113.656C413.876 113.768 412.056 113.964 410.32 114.244C409.76 114.972 409.004 115.504 408.052 115.84C407.156 116.176 406.344 116.344 405.616 116.344C404.72 116.344 403.964 116.12 403.348 115.672C402.732 115.224 402.228 114.636 401.836 113.908C402.732 112.116 403.964 109.736 405.532 106.768C407.156 103.744 408.948 100.468 410.908 96.94C412.924 93.356 414.94 89.744 416.956 86.104C419.028 82.464 420.96 79.076 422.752 75.94C424.6 72.804 426.14 70.2 427.372 68.128C425.132 68.408 423.116 68.632 421.324 68.8C419.532 68.912 418.356 68.968 417.796 68.968C414.044 68.968 411.3 68.492 409.564 67.54C407.884 66.532 407.044 65.16 407.044 63.424C407.044 62.416 407.128 61.576 407.296 60.904C407.464 60.176 407.94 59.168 408.724 57.88C410.516 58.832 412.84 59.784 415.696 60.736C418.608 61.632 422.052 62.08 426.028 62.08C427.092 62.08 428.072 62.08 428.968 62.08C429.864 62.024 430.704 61.968 431.488 61.912C432.72 60.456 433.84 59.532 434.848 59.14C435.856 58.692 436.892 58.468 437.956 58.468C438.46 58.468 439.16 58.552 440.056 58.72C440.952 58.888 441.792 59.364 442.576 60.148C443.36 60.932 443.808 62.248 443.92 64.096C442.52 64.208 440.868 65.216 438.964 67.12C437.116 68.968 435.1 71.46 432.916 74.596C430.732 77.676 428.492 81.148 426.196 85.012C423.956 88.82 421.744 92.74 419.56 96.772C417.376 100.748 415.36 104.556 413.512 108.196C416.984 107.412 420.12 106.88 422.92 106.6C425.776 106.32 427.904 106.18 429.304 106.18C431.6 106.18 433.56 106.348 435.184 106.684C436.864 106.964 438.152 107.664 439.048 108.784C439.944 109.848 440.392 111.556 440.392 113.908C440.392 114.3 440.392 114.72 440.392 115.168C440.392 115.616 440.364 116.064 440.308 116.512ZM470.501 116.428C465.741 116.428 461.849 115.392 458.825 113.32C455.801 111.248 453.561 108.448 452.105 104.92C450.705 101.392 450.005 97.5 450.005 93.244C450.005 89.996 450.397 86.72 451.181 83.416C452.021 80.056 453.197 76.836 454.709 73.756C456.221 70.676 458.097 67.932 460.337 65.524C462.577 63.06 465.097 61.128 467.897 59.728C470.753 58.272 473.889 57.544 477.305 57.544C481.785 57.544 485.089 58.664 487.217 60.904C489.345 63.144 490.409 65.832 490.409 68.968C490.409 71.432 489.793 73.98 488.561 76.612C487.385 79.188 485.621 81.596 483.269 83.836C480.973 86.076 478.173 87.896 474.869 89.296C471.565 90.696 467.813 91.396 463.613 91.396C462.101 91.396 460.589 91.312 459.077 91.144C459.189 97.416 460.365 102.176 462.605 105.424C464.845 108.616 468.009 110.212 472.097 110.212C474.897 110.212 477.361 109.54 479.489 108.196C481.617 106.796 483.353 104.64 484.697 101.728C485.369 102.344 485.873 103.1 486.209 103.996C486.545 104.836 486.713 105.648 486.713 106.432C486.713 108.168 486.181 109.68 485.117 110.968C484.053 112.2 482.681 113.236 481.001 114.076C479.377 114.86 477.613 115.448 475.709 115.84C473.861 116.232 472.125 116.428 470.501 116.428ZM463.025 86.02C467.113 86.02 470.529 85.292 473.273 83.836C476.017 82.38 478.089 80.56 479.489 78.376C480.889 76.136 481.589 73.924 481.589 71.74C481.589 69.556 480.917 67.708 479.573 66.196C478.229 64.628 476.157 63.844 473.357 63.844C470.837 63.844 468.709 64.572 466.973 66.028C465.293 67.428 463.921 69.276 462.857 71.572C461.793 73.812 460.981 76.192 460.421 78.712C459.861 81.232 459.469 83.584 459.245 85.768C460.589 85.936 461.849 86.02 463.025 86.02Z" fill="white"/>
    </g>
    <defs>
        <clipPath id="clip0_15_5">
            <rect width="516" height="162" fill="white"/>
        </clipPath>
        <clipPath id="clip1_15_5">
            <rect width="82" height="124" fill="white" transform="translate(22 19)"/>
        </clipPath>
    </defs>
</svg>
