<svg width="800" height="800" viewBox="0 0 800 800" fill="none" xmlns="http://www.w3.org/2000/svg">
<g clip-path="url(#clip0_96_13)">
<path d="M612.036 305.517L611.719 304.98L611.303 304.394L400 0L188.306 304.931L187.941 305.517C145.485 372.266 116.677 449.438 116.53 527.002C116.505 560.327 121.999 593.702 134.402 625.538C146.755 657.373 166.091 687.55 192.703 714.161H192.728C249.853 771.314 325.099 800.049 400 800C474.903 800.049 550.122 771.314 607.275 714.16C633.911 687.549 653.247 657.372 665.6 625.561C678.003 593.7 683.472 560.327 683.472 527.025C683.325 449.439 654.517 372.266 612.036 305.517ZM600.22 600.122C591.285 623.047 577.638 644.556 557.691 664.55C514.063 708.155 457.202 729.809 400 729.858C342.799 729.809 285.938 708.153 242.31 664.55C222.339 644.555 208.716 623.045 199.756 600.097C190.845 577.172 186.67 552.684 186.67 527.002C186.5 467.505 209.888 401.489 246.875 343.603L400 122.997L553.174 343.652C590.113 401.538 613.477 467.528 613.33 527.025C613.33 552.709 609.155 577.197 600.22 600.122Z" fill="#90CDF4"/>
<path d="M320.825 371.533C284.228 412.206 225.952 519.263 262.549 593.798C303.418 677.05 359.033 627.563 333.032 574.853C282.886 473.194 320.825 371.533 320.825 371.533Z" fill="#90CDF4"/>
</g>
<defs>
<clipPath id="clip0_96_13">
<rect width="800" height="800" fill="white"/>
</clipPath>
</defs>
</svg>
